<svg xmlns="http://www.w3.org/2000/svg" viewBox="0 0 64 64" width="64" height="64" role="img" aria-label="LiMap">
  <style>
    .leaf { fill: #138808 } .outer { fill: #e8730c } .mid { fill: #f7a65a } .centre { fill: #fff1de }
    path { stroke: #ffffff; stroke-width: .7; stroke-linejoin: round }
    .water { fill: none; stroke: #138808; stroke-width: 2.4; stroke-linecap: round }
    .dot { fill: #0e7490; stroke: #ffffff; stroke-width: .8 }
    @media (prefers-color-scheme: dark) {
      .leaf { fill: #2fae4a } .outer { fill: #ff9933 } .mid { fill: #ffb866 } .centre { fill: #ffe9c9 }
      path { stroke: #111827 }
      .water { stroke: #2fae4a }
      .dot { fill: #22d3ee; stroke: #111827 }
    }
  </style>
  <g>
    <path class="leaf" transform="translate(32 49) rotate(-82)" d="M0 0C-7.2 -5 -4.4 -15 0 -20C4.4 -15 7.2 -5 0 0Z"/>
    <path class="leaf" transform="translate(32 49) rotate(82)" d="M0 0C-7.2 -5 -4.4 -15 0 -20C4.4 -15 7.2 -5 0 0Z"/>
    <path class="outer" transform="translate(32 49) rotate(-56)" d="M0 0C-9.9 -6.75 -6.05 -20.25 0 -27C6.05 -20.25 9.9 -6.75 0 0Z"/>
    <path class="outer" transform="translate(32 49) rotate(56)" d="M0 0C-9.9 -6.75 -6.05 -20.25 0 -27C6.05 -20.25 9.9 -6.75 0 0Z"/>
    <path class="mid" transform="translate(32 49) rotate(-28)" d="M0 0C-9.9 -7.5 -6.05 -22.5 0 -30C6.05 -22.5 9.9 -7.5 0 0Z"/>
    <path class="mid" transform="translate(32 49) rotate(28)" d="M0 0C-9.9 -7.5 -6.05 -22.5 0 -30C6.05 -22.5 9.9 -7.5 0 0Z"/>
    <path class="centre" transform="translate(32 49) rotate(0)" d="M0 0C-10.35 -8 -6.33 -24 0 -32C6.33 -24 10.35 -8 0 0Z"/>
  </g>
  <path class="water" d="M9 51.5Q20.5 47.5 32 51.5T55 51.5"/>
  <circle class="dot" cx="32" cy="49.5" r="2.7"/>
</svg>
